{
	"asset":{
		"generator":"Khronos glTF Blender I/O v4.0.44",
		"version":"2.0"
	},
	"scene":0,
	"scenes":[
		{
			"name":"Scene",
			"nodes":[
				0,
				1,
				2,
				3,
				4,
				5
			]
		}
	],
	"nodes":[
		{
			"mesh":0,
			"name":"Plane",
			"scale":[
				42.891597747802734,
				5.905283451080322,
				39.54227828979492
			],
			"translation":[
				0,
				-1.4391379356384277,
				0
			]
		},
		{
			"mesh":1,
			"name":"node_damagedHelmet_-6514",
			"rotation":[
				0.70710688829422,
				0,
				0,
				0.7071066498756409
			]
		},
		{
			"mesh":2,
			"name":"Cube",
			"scale":[
				0.457038938999176,
				2.3335227966308594,
				0.31120729446411133
			],
			"translation":[
				-1.4208564758300781,
				0.8408582210540771,
				-3.784031867980957
			]
		},
		{
			"mesh":3,
			"name":"Suzanne.002",
			"rotation":[
				-0.07444008439779282,
				0.9182381629943848,
				0.32872477173805237,
				0.20793597400188446
			],
			"scale":[
				2.098743438720703,
				2.098743438720703,
				2.098743438720703
			],
			"translation":[
				-23.4298095703125,
				-0.6266718506813049,
				-8.891529083251953
			]
		},
		{
			"mesh":4,
			"name":"Cylinder",
			"scale":[
				1,
				18.306407928466797,
				1
			],
			"translation":[
				-40.29546356201172,
				17.110361099243164,
				0
			]
		},
		{
			"mesh":5,
			"name":"Torus",
			"rotation":[
				-0.5394217371940613,
				0,
				0,
				0.8420357704162598
			],
			"scale":[
				9.742959976196289,
				9.742959976196289,
				9.742959976196289
			],
			"translation":[
				0,
				15.449346542358398,
				-21.226512908935547
			]
		}
	],
	"materials":[
		{
			"emissiveFactor":[
				1,
				1,
				1
			],
			"emissiveTexture":{
				"index":0
			},
			"name":"Material_MR",
			"normalTexture":{
				"index":1
			},
			"occlusionTexture":{
				"index":2
			},
			"pbrMetallicRoughness":{
				"baseColorTexture":{
					"index":3
				},
				"metallicRoughnessTexture":{
					"index":2
				}
			}
		}
	],
	"meshes":[
		{
			"name":"Plane",
			"primitives":[
				{
					"attributes":{
						"POSITION":0,
						"NORMAL":1,
						"TEXCOORD_0":2
					},
					"indices":3
				}
			]
		},
		{
			"name":"mesh_helmet_LP_13930damagedHelmet",
			"primitives":[
				{
					"attributes":{
						"POSITION":4,
						"NORMAL":5,
						"TEXCOORD_0":6
					},
					"indices":7,
					"material":0
				}
			]
		},
		{
			"name":"Cube.001",
			"primitives":[
				{
					"attributes":{
						"POSITION":8,
						"NORMAL":9,
						"TEXCOORD_0":10
					},
					"indices":11
				}
			]
		},
		{
			"name":"Suzanne.002",
			"primitives":[
				{
					"attributes":{
						"POSITION":12,
						"NORMAL":13,
						"TEXCOORD_0":14
					},
					"indices":15
				}
			]
		},
		{
			"name":"Cylinder",
			"primitives":[
				{
					"attributes":{
						"POSITION":16,
						"NORMAL":17,
						"TEXCOORD_0":18
					},
					"indices":19
				}
			]
		},
		{
			"name":"Torus",
			"primitives":[
				{
					"attributes":{
						"POSITION":20,
						"NORMAL":21,
						"TEXCOORD_0":22
					},
					"indices":23
				}
			]
		}
	],
	"textures":[
		{
			"sampler":0,
			"source":0
		},
		{
			"sampler":0,
			"source":1
		},
		{
			"sampler":0,
			"source":2
		},
		{
			"sampler":0,
			"source":3
		}
	],
	"images":[
		{
			"mimeType":"image/jpeg",
			"name":"Default_emissive",
			"uri":"Default_emissive.jpg"
		},
		{
			"mimeType":"image/jpeg",
			"name":"Default_normal",
			"uri":"Default_normal.jpg"
		},
		{
			"mimeType":"image/png",
			"name":"Default_AO-Default_metalRoughness",
			"uri":"Default_AO-Default_metalRoughness.png"
		},
		{
			"mimeType":"image/jpeg",
			"name":"Default_albedo",
			"uri":"Default_albedo.jpg"
		}
	],
	"accessors":[
		{
			"bufferView":0,
			"componentType":5126,
			"count":4,
			"max":[
				1,
				0,
				1
			],
			"min":[
				-1,
				0,
				-1
			],
			"type":"VEC3"
		},
		{
			"bufferView":1,
			"componentType":5126,
			"count":4,
			"type":"VEC3"
		},
		{
			"bufferView":2,
			"componentType":5126,
			"count":4,
			"type":"VEC2"
		},
		{
			"bufferView":3,
			"componentType":5123,
			"count":6,
			"type":"SCALAR"
		},
		{
			"bufferView":4,
			"componentType":5126,
			"count":14588,
			"max":[
				0.9424954056739807,
				0.8128451108932495,
				0.900973916053772
			],
			"min":[
				-0.9474585652351379,
				-1.18715500831604,
				-0.9009949564933777
			],
			"type":"VEC3"
		},
		{
			"bufferView":5,
			"componentType":5126,
			"count":14588,
			"type":"VEC3"
		},
		{
			"bufferView":6,
			"componentType":5126,
			"count":14588,
			"type":"VEC2"
		},
		{
			"bufferView":7,
			"componentType":5123,
			"count":46356,
			"type":"SCALAR"
		},
		{
			"bufferView":8,
			"componentType":5126,
			"count":672,
			"max":[
				82.54608154296875,
				1.000000238418579,
				98.70089721679688
			],
			"min":[
				-54.93705368041992,
				-1,
				-97.73295593261719
			],
			"type":"VEC3"
		},
		{
			"bufferView":9,
			"componentType":5126,
			"count":672,
			"type":"VEC3"
		},
		{
			"bufferView":10,
			"componentType":5126,
			"count":672,
			"type":"VEC2"
		},
		{
			"bufferView":11,
			"componentType":5123,
			"count":1008,
			"type":"SCALAR"
		},
		{
			"bufferView":12,
			"componentType":5126,
			"count":5898,
			"max":[
				1.3671875,
				0.984375,
				10.685276985168457
			],
			"min":[
				-19.89064598083496,
				-8.49737548828125,
				-0.8515625
			],
			"type":"VEC3"
		},
		{
			"bufferView":13,
			"componentType":5126,
			"count":5898,
			"type":"VEC3"
		},
		{
			"bufferView":14,
			"componentType":5126,
			"count":5898,
			"type":"VEC2"
		},
		{
			"bufferView":15,
			"componentType":5123,
			"count":8712,
			"type":"SCALAR"
		},
		{
			"bufferView":16,
			"componentType":5126,
			"count":1152,
			"max":[
				83.75212097167969,
				1,
				40
			],
			"min":[
				-2.9075889587402344,
				-1,
				-39.53949737548828
			],
			"type":"VEC3"
		},
		{
			"bufferView":17,
			"componentType":5126,
			"count":1152,
			"type":"VEC3"
		},
		{
			"bufferView":18,
			"componentType":5126,
			"count":1152,
			"type":"VEC2"
		},
		{
			"bufferView":19,
			"componentType":5123,
			"count":2232,
			"type":"SCALAR"
		},
		{
			"bufferView":20,
			"componentType":5126,
			"count":2304,
			"max":[
				1.25,
				0.25,
				1.25
			],
			"min":[
				-1.25,
				-0.25,
				-1.25
			],
			"type":"VEC3"
		},
		{
			"bufferView":21,
			"componentType":5126,
			"count":2304,
			"type":"VEC3"
		},
		{
			"bufferView":22,
			"componentType":5126,
			"count":2304,
			"type":"VEC2"
		},
		{
			"bufferView":23,
			"componentType":5123,
			"count":3456,
			"type":"SCALAR"
		}
	],
	"bufferViews":[
		{
			"buffer":0,
			"byteLength":48,
			"byteOffset":0,
			"target":34962
		},
		{
			"buffer":0,
			"byteLength":48,
			"byteOffset":48,
			"target":34962
		},
		{
			"buffer":0,
			"byteLength":32,
			"byteOffset":96,
			"target":34962
		},
		{
			"buffer":0,
			"byteLength":12,
			"byteOffset":128,
			"target":34963
		},
		{
			"buffer":0,
			"byteLength":175056,
			"byteOffset":140,
			"target":34962
		},
		{
			"buffer":0,
			"byteLength":175056,
			"byteOffset":175196,
			"target":34962
		},
		{
			"buffer":0,
			"byteLength":116704,
			"byteOffset":350252,
			"target":34962
		},
		{
			"buffer":0,
			"byteLength":92712,
			"byteOffset":466956,
			"target":34963
		},
		{
			"buffer":0,
			"byteLength":8064,
			"byteOffset":559668,
			"target":34962
		},
		{
			"buffer":0,
			"byteLength":8064,
			"byteOffset":567732,
			"target":34962
		},
		{
			"buffer":0,
			"byteLength":5376,
			"byteOffset":575796,
			"target":34962
		},
		{
			"buffer":0,
			"byteLength":2016,
			"byteOffset":581172,
			"target":34963
		},
		{
			"buffer":0,
			"byteLength":70776,
			"byteOffset":583188,
			"target":34962
		},
		{
			"buffer":0,
			"byteLength":70776,
			"byteOffset":653964,
			"target":34962
		},
		{
			"buffer":0,
			"byteLength":47184,
			"byteOffset":724740,
			"target":34962
		},
		{
			"buffer":0,
			"byteLength":17424,
			"byteOffset":771924,
			"target":34963
		},
		{
			"buffer":0,
			"byteLength":13824,
			"byteOffset":789348,
			"target":34962
		},
		{
			"buffer":0,
			"byteLength":13824,
			"byteOffset":803172,
			"target":34962
		},
		{
			"buffer":0,
			"byteLength":9216,
			"byteOffset":816996,
			"target":34962
		},
		{
			"buffer":0,
			"byteLength":4464,
			"byteOffset":826212,
			"target":34963
		},
		{
			"buffer":0,
			"byteLength":27648,
			"byteOffset":830676,
			"target":34962
		},
		{
			"buffer":0,
			"byteLength":27648,
			"byteOffset":858324,
			"target":34962
		},
		{
			"buffer":0,
			"byteLength":18432,
			"byteOffset":885972,
			"target":34962
		},
		{
			"buffer":0,
			"byteLength":6912,
			"byteOffset":904404,
			"target":34963
		}
	],
	"samplers":[
		{
			"magFilter":9729,
			"minFilter":9987
		}
	],
	"buffers":[
		{
			"byteLength":911316,
			"uri":"ShadowTest.bin"
		}
	]
}
