{
	"asset":{
		"generator":"Khronos glTF Blender I/O v4.0.44",
		"version":"2.0"
	},
	"scene":0,
	"scenes":[
		{
			"name":"Scene",
			"nodes":[
				0,
				1,
				2,
				3,
				4,
				5,
				6,
				7,
				8,
				9
			]
		}
	],
	"nodes":[
		{
			"mesh":0,
			"name":"Cube",
			"scale":[
				20.056598663330078,
				0.10918807983398438,
				18.921567916870117
			],
			"translation":[
				0,
				-1.2418714761734009,
				0
			]
		},
		{
			"mesh":1,
			"name":"Cube.001",
			"rotation":[
				0,
				0.279786616563797,
				0,
				0.9600623250007629
			],
			"translation":[
				0,
				-0.13216815888881683,
				8.370940208435059
			]
		},
		{
			"mesh":2,
			"name":"Cube.002",
			"rotation":[
				0,
				0.279786616563797,
				0,
				0.9600623250007629
			],
			"translation":[
				5.381021976470947,
				-0.13216815888881683,
				-5.922289848327637
			]
		},
		{
			"mesh":3,
			"name":"Cube.003",
			"rotation":[
				0,
				0.279786616563797,
				0,
				0.9600623250007629
			],
			"translation":[
				-5.392845630645752,
				-0.13216815888881683,
				-8.192085266113281
			]
		},
		{
			"mesh":4,
			"name":"Cube.004",
			"rotation":[
				0,
				-0.019647227600216866,
				0,
				0.9998070001602173
			],
			"scale":[
				2.7473104000091553,
				2.6392741203308105,
				0.15500855445861816
			],
			"translation":[
				0.18748998641967773,
				0.9906296730041504,
				-8.192085266113281
			]
		},
		{
			"mesh":5,
			"name":"Cube.005",
			"rotation":[
				0,
				-0.49135372042655945,
				0,
				0.8709601163864136
			],
			"scale":[
				2.7473104000091553,
				2.6392741203308105,
				0.15500855445861816
			],
			"translation":[
				-6.570078372955322,
				1.703420639038086,
				3.7801620960235596
			]
		},
		{
			"mesh":6,
			"name":"Icosphere",
			"translation":[
				5.518013954162598,
				-0.19459962844848633,
				4.966645240783691
			]
		},
		{
			"mesh":7,
			"name":"Torus",
			"rotation":[
				0,
				0,
				0.7013604640960693,
				0.712806761264801
			],
			"translation":[
				-9.217474937438965,
				0.7509994506835938,
				-4.314401149749756
			]
		},
		{
			"mesh":8,
			"name":"Suzanne",
			"rotation":[
				-0.2866089940071106,
				0,
				0,
				0.95804762840271
			],
			"translation":[
				5.5265889167785645,
				-0.6314042210578918,
				0.762129545211792
			]
		},
		{
			"mesh":9,
			"name":"Suzanne.001",
			"rotation":[
				-0.07026301324367523,
				0,
				0,
				0.997528612613678
			],
			"scale":[
				1.3948136568069458,
				1.3948137760162354,
				1.3948137760162354
			],
			"translation":[
				-0.03229093551635742,
				1.6233899593353271,
				-5.652731895446777
			]
		}
	],
	"materials":[
		{
			"doubleSided":true,
			"name":"Material.001",
			"pbrMetallicRoughness":{
				"baseColorFactor":[
					0.800000011920929,
					0.800000011920929,
					0.800000011920929,
					1
				],
				"metallicFactor":0,
				"roughnessFactor":0.5
			}
		}
	],
	"meshes":[
		{
			"name":"Cube.001",
			"primitives":[
				{
					"attributes":{
						"POSITION":0,
						"NORMAL":1,
						"TEXCOORD_0":2
					},
					"indices":3,
					"material":0
				}
			]
		},
		{
			"name":"Cube.002",
			"primitives":[
				{
					"attributes":{
						"POSITION":4,
						"NORMAL":5,
						"TEXCOORD_0":6
					},
					"indices":7
				}
			]
		},
		{
			"name":"Cube.003",
			"primitives":[
				{
					"attributes":{
						"POSITION":8,
						"NORMAL":9,
						"TEXCOORD_0":10
					},
					"indices":7
				}
			]
		},
		{
			"name":"Cube.004",
			"primitives":[
				{
					"attributes":{
						"POSITION":11,
						"NORMAL":12,
						"TEXCOORD_0":13
					},
					"indices":7
				}
			]
		},
		{
			"name":"Cube.005",
			"primitives":[
				{
					"attributes":{
						"POSITION":14,
						"NORMAL":15,
						"TEXCOORD_0":16
					},
					"indices":7
				}
			]
		},
		{
			"name":"Cube.006",
			"primitives":[
				{
					"attributes":{
						"POSITION":17,
						"NORMAL":18,
						"TEXCOORD_0":19
					},
					"indices":7
				}
			]
		},
		{
			"name":"Icosphere",
			"primitives":[
				{
					"attributes":{
						"POSITION":20,
						"NORMAL":21,
						"TEXCOORD_0":22
					},
					"indices":23
				}
			]
		},
		{
			"name":"Torus",
			"primitives":[
				{
					"attributes":{
						"POSITION":24,
						"NORMAL":25,
						"TEXCOORD_0":26
					},
					"indices":27
				}
			]
		},
		{
			"name":"Suzanne",
			"primitives":[
				{
					"attributes":{
						"POSITION":28,
						"NORMAL":29,
						"TEXCOORD_0":30
					},
					"indices":31
				}
			]
		},
		{
			"name":"Suzanne.001",
			"primitives":[
				{
					"attributes":{
						"POSITION":32,
						"NORMAL":33,
						"TEXCOORD_0":34
					},
					"indices":31
				}
			]
		}
	],
	"accessors":[
		{
			"bufferView":0,
			"componentType":5126,
			"count":24,
			"max":[
				1,
				1,
				1
			],
			"min":[
				-1,
				-1,
				-1
			],
			"type":"VEC3"
		},
		{
			"bufferView":1,
			"componentType":5126,
			"count":24,
			"type":"VEC3"
		},
		{
			"bufferView":2,
			"componentType":5126,
			"count":24,
			"type":"VEC2"
		},
		{
			"bufferView":3,
			"componentType":5123,
			"count":36,
			"type":"SCALAR"
		},
		{
			"bufferView":4,
			"componentType":5126,
			"count":24,
			"max":[
				1,
				1,
				1
			],
			"min":[
				-1,
				-1,
				-1
			],
			"type":"VEC3"
		},
		{
			"bufferView":5,
			"componentType":5126,
			"count":24,
			"type":"VEC3"
		},
		{
			"bufferView":6,
			"componentType":5126,
			"count":24,
			"type":"VEC2"
		},
		{
			"bufferView":7,
			"componentType":5123,
			"count":36,
			"type":"SCALAR"
		},
		{
			"bufferView":8,
			"componentType":5126,
			"count":24,
			"max":[
				1,
				1,
				1
			],
			"min":[
				-1,
				-1,
				-1
			],
			"type":"VEC3"
		},
		{
			"bufferView":9,
			"componentType":5126,
			"count":24,
			"type":"VEC3"
		},
		{
			"bufferView":10,
			"componentType":5126,
			"count":24,
			"type":"VEC2"
		},
		{
			"bufferView":11,
			"componentType":5126,
			"count":24,
			"max":[
				1,
				1,
				1
			],
			"min":[
				-1,
				-1,
				-1
			],
			"type":"VEC3"
		},
		{
			"bufferView":12,
			"componentType":5126,
			"count":24,
			"type":"VEC3"
		},
		{
			"bufferView":13,
			"componentType":5126,
			"count":24,
			"type":"VEC2"
		},
		{
			"bufferView":14,
			"componentType":5126,
			"count":24,
			"max":[
				1,
				1,
				1
			],
			"min":[
				-1,
				-1,
				-1
			],
			"type":"VEC3"
		},
		{
			"bufferView":15,
			"componentType":5126,
			"count":24,
			"type":"VEC3"
		},
		{
			"bufferView":16,
			"componentType":5126,
			"count":24,
			"type":"VEC2"
		},
		{
			"bufferView":17,
			"componentType":5126,
			"count":24,
			"max":[
				1,
				1,
				1
			],
			"min":[
				-1,
				-1,
				-1
			],
			"type":"VEC3"
		},
		{
			"bufferView":18,
			"componentType":5126,
			"count":24,
			"type":"VEC3"
		},
		{
			"bufferView":19,
			"componentType":5126,
			"count":24,
			"type":"VEC2"
		},
		{
			"bufferView":20,
			"componentType":5126,
			"count":240,
			"max":[
				0.9510578513145447,
				1,
				0.9999999403953552
			],
			"min":[
				-0.9510578513145447,
				-1,
				-0.9999999403953552
			],
			"type":"VEC3"
		},
		{
			"bufferView":21,
			"componentType":5126,
			"count":240,
			"type":"VEC3"
		},
		{
			"bufferView":22,
			"componentType":5126,
			"count":240,
			"type":"VEC2"
		},
		{
			"bufferView":23,
			"componentType":5123,
			"count":240,
			"type":"SCALAR"
		},
		{
			"bufferView":24,
			"componentType":5126,
			"count":2304,
			"max":[
				1.25,
				0.25,
				1.25
			],
			"min":[
				-1.25,
				-0.25,
				-1.25
			],
			"type":"VEC3"
		},
		{
			"bufferView":25,
			"componentType":5126,
			"count":2304,
			"type":"VEC3"
		},
		{
			"bufferView":26,
			"componentType":5126,
			"count":2304,
			"type":"VEC2"
		},
		{
			"bufferView":27,
			"componentType":5123,
			"count":3456,
			"type":"SCALAR"
		},
		{
			"bufferView":28,
			"componentType":5126,
			"count":1970,
			"max":[
				1.3671875,
				0.984375,
				0.8515625
			],
			"min":[
				-1.3671875,
				-0.984375,
				-0.8515625
			],
			"type":"VEC3"
		},
		{
			"bufferView":29,
			"componentType":5126,
			"count":1970,
			"type":"VEC3"
		},
		{
			"bufferView":30,
			"componentType":5126,
			"count":1970,
			"type":"VEC2"
		},
		{
			"bufferView":31,
			"componentType":5123,
			"count":2904,
			"type":"SCALAR"
		},
		{
			"bufferView":32,
			"componentType":5126,
			"count":1970,
			"max":[
				1.3671875,
				0.984375,
				0.8515625
			],
			"min":[
				-1.3671875,
				-0.984375,
				-0.8515625
			],
			"type":"VEC3"
		},
		{
			"bufferView":33,
			"componentType":5126,
			"count":1970,
			"type":"VEC3"
		},
		{
			"bufferView":34,
			"componentType":5126,
			"count":1970,
			"type":"VEC2"
		}
	],
	"bufferViews":[
		{
			"buffer":0,
			"byteLength":288,
			"byteOffset":0,
			"target":34962
		},
		{
			"buffer":0,
			"byteLength":288,
			"byteOffset":288,
			"target":34962
		},
		{
			"buffer":0,
			"byteLength":192,
			"byteOffset":576,
			"target":34962
		},
		{
			"buffer":0,
			"byteLength":72,
			"byteOffset":768,
			"target":34963
		},
		{
			"buffer":0,
			"byteLength":288,
			"byteOffset":840,
			"target":34962
		},
		{
			"buffer":0,
			"byteLength":288,
			"byteOffset":1128,
			"target":34962
		},
		{
			"buffer":0,
			"byteLength":192,
			"byteOffset":1416,
			"target":34962
		},
		{
			"buffer":0,
			"byteLength":72,
			"byteOffset":1608,
			"target":34963
		},
		{
			"buffer":0,
			"byteLength":288,
			"byteOffset":1680,
			"target":34962
		},
		{
			"buffer":0,
			"byteLength":288,
			"byteOffset":1968,
			"target":34962
		},
		{
			"buffer":0,
			"byteLength":192,
			"byteOffset":2256,
			"target":34962
		},
		{
			"buffer":0,
			"byteLength":288,
			"byteOffset":2448,
			"target":34962
		},
		{
			"buffer":0,
			"byteLength":288,
			"byteOffset":2736,
			"target":34962
		},
		{
			"buffer":0,
			"byteLength":192,
			"byteOffset":3024,
			"target":34962
		},
		{
			"buffer":0,
			"byteLength":288,
			"byteOffset":3216,
			"target":34962
		},
		{
			"buffer":0,
			"byteLength":288,
			"byteOffset":3504,
			"target":34962
		},
		{
			"buffer":0,
			"byteLength":192,
			"byteOffset":3792,
			"target":34962
		},
		{
			"buffer":0,
			"byteLength":288,
			"byteOffset":3984,
			"target":34962
		},
		{
			"buffer":0,
			"byteLength":288,
			"byteOffset":4272,
			"target":34962
		},
		{
			"buffer":0,
			"byteLength":192,
			"byteOffset":4560,
			"target":34962
		},
		{
			"buffer":0,
			"byteLength":2880,
			"byteOffset":4752,
			"target":34962
		},
		{
			"buffer":0,
			"byteLength":2880,
			"byteOffset":7632,
			"target":34962
		},
		{
			"buffer":0,
			"byteLength":1920,
			"byteOffset":10512,
			"target":34962
		},
		{
			"buffer":0,
			"byteLength":480,
			"byteOffset":12432,
			"target":34963
		},
		{
			"buffer":0,
			"byteLength":27648,
			"byteOffset":12912,
			"target":34962
		},
		{
			"buffer":0,
			"byteLength":27648,
			"byteOffset":40560,
			"target":34962
		},
		{
			"buffer":0,
			"byteLength":18432,
			"byteOffset":68208,
			"target":34962
		},
		{
			"buffer":0,
			"byteLength":6912,
			"byteOffset":86640,
			"target":34963
		},
		{
			"buffer":0,
			"byteLength":23640,
			"byteOffset":93552,
			"target":34962
		},
		{
			"buffer":0,
			"byteLength":23640,
			"byteOffset":117192,
			"target":34962
		},
		{
			"buffer":0,
			"byteLength":15760,
			"byteOffset":140832,
			"target":34962
		},
		{
			"buffer":0,
			"byteLength":5808,
			"byteOffset":156592,
			"target":34963
		},
		{
			"buffer":0,
			"byteLength":23640,
			"byteOffset":162400,
			"target":34962
		},
		{
			"buffer":0,
			"byteLength":23640,
			"byteOffset":186040,
			"target":34962
		},
		{
			"buffer":0,
			"byteLength":15760,
			"byteOffset":209680,
			"target":34962
		}
	],
	"buffers":[
		{
			"byteLength":225440,
			"uri":"PointShadowTest.bin"
		}
	]
}
